<?xml version="1.0" encoding="UTF-8"?>
<svg width="16px" height="16px" viewBox="0 0 16 16" version="1.1" xmlns="http://www.w3.org/2000/svg" xmlns:xlink="http://www.w3.org/1999/xlink">
    <!-- Generator: Sketch 52 (66869) - http://www.bohemiancoding.com/sketch -->
    <title>dropdown-black</title>
    <desc>Created with Sketch.</desc>
    <g id="dropdown-black" stroke="none" stroke-width="1" fill="none" fill-rule="evenodd">
        <g>
            <rect id="dropdown-bounds" x="-1.13686838e-13" y="0" width="16" height="16"></rect>
            <path d="M8.62030208,11.7309269 C8.6052111,11.7461258 8.60018078,11.7658844 8.58341302,11.7810833 C8.41825065,11.9300327 8.20194663,12.0022275 7.98564261,11.9999477 C7.76933859,12.0022275 7.55219618,11.9300327 7.38703381,11.7810833 C7.37026606,11.7658844 7.36439734,11.7453659 7.34930637,11.729407 L0.243970814,5.28810785 C-0.0813236045,4.99400889 -0.0813236045,4.51600308 0.243970814,4.22114418 C0.569265232,3.92628527 1.09577269,3.92628527 1.42106711,4.22114418 L7.986481,10.1722784 L14.5787233,4.22114418 C14.9040177,3.92628527 15.4313636,3.92628527 15.756658,4.22114418 C16.081114,4.51600308 16.081114,4.99400889 15.756658,5.28810785 L8.62030208,11.7309269 Z" id="Path" fill="#000000"></path>
        </g>
    </g>
</svg>